<svg width="234" height="77" viewBox="0 0 234 77" fill="none" xmlns="http://www.w3.org/2000/svg">
<path d="M118.304 51.576C115.808 51.576 113.584 51.048 111.632 49.992C109.68 48.904 108.16 47.416 107.072 45.528C105.984 43.608 105.44 41.432 105.44 39C105.44 36.536 105.984 34.36 107.072 32.472C108.16 30.584 109.664 29.112 111.584 28.056C113.504 26.968 115.712 26.424 118.208 26.424C120.608 26.424 122.8 27.016 124.784 28.2C126.768 29.384 128.208 31.096 129.104 33.336L123.152 35.448C122.704 34.52 122 33.784 121.04 33.24C120.112 32.664 119.072 32.376 117.92 32.376C116.736 32.376 115.696 32.664 114.8 33.24C113.904 33.784 113.2 34.552 112.688 35.544C112.176 36.536 111.92 37.688 111.92 39C111.92 40.312 112.176 41.464 112.688 42.456C113.2 43.416 113.92 44.184 114.848 44.76C115.776 45.336 116.832 45.624 118.016 45.624C119.168 45.624 120.208 45.32 121.136 44.712C122.096 44.104 122.8 43.304 123.248 42.312L129.248 44.424C128.32 46.696 126.864 48.456 124.88 49.704C122.928 50.952 120.736 51.576 118.304 51.576ZM147.435 51L147.243 46.152V38.856C147.243 37.416 147.083 36.184 146.763 35.16C146.475 34.136 145.995 33.352 145.323 32.808C144.683 32.232 143.803 31.944 142.683 31.944C141.659 31.944 140.731 32.168 139.899 32.616C139.067 33.064 138.363 33.752 137.787 34.68L132.219 32.76C132.667 31.736 133.323 30.744 134.187 29.784C135.051 28.792 136.171 27.992 137.547 27.384C138.955 26.744 140.667 26.424 142.683 26.424C145.115 26.424 147.131 26.888 148.731 27.816C150.363 28.744 151.563 30.056 152.331 31.752C153.131 33.416 153.515 35.4 153.483 37.704L153.339 51H147.435ZM140.715 51.576C137.835 51.576 135.595 50.936 133.995 49.656C132.427 48.376 131.643 46.568 131.643 44.232C131.643 41.672 132.491 39.752 134.187 38.472C135.915 37.16 138.331 36.504 141.435 36.504H147.531V41.208H143.643C141.563 41.208 140.123 41.464 139.323 41.976C138.523 42.456 138.123 43.144 138.123 44.04C138.123 44.744 138.443 45.304 139.083 45.72C139.723 46.104 140.619 46.296 141.771 46.296C142.827 46.296 143.755 46.056 144.555 45.576C145.387 45.064 146.043 44.424 146.523 43.656C147.003 42.856 147.243 42.04 147.243 41.208H148.779C148.779 44.472 148.155 47.016 146.907 48.84C145.691 50.664 143.627 51.576 140.715 51.576ZM162.997 38.376C162.997 35.784 163.493 33.64 164.485 31.944C165.509 30.248 166.805 28.984 168.373 28.152C169.973 27.32 171.637 26.904 173.365 26.904V33.048C171.893 33.048 170.501 33.224 169.189 33.576C167.909 33.928 166.869 34.504 166.069 35.304C165.269 36.104 164.869 37.128 164.869 38.376H162.997ZM158.533 51V27H164.869V51H158.533ZM187.568 51.576C185.2 51.576 183.104 51.048 181.28 49.992C179.456 48.904 178.016 47.416 176.96 45.528C175.936 43.64 175.424 41.464 175.424 39C175.424 36.536 175.952 34.36 177.008 32.472C178.096 30.584 179.568 29.112 181.424 28.056C183.312 26.968 185.472 26.424 187.904 26.424C190.016 26.424 191.952 26.984 193.712 28.104C195.504 29.192 196.928 30.808 197.984 32.952C199.072 35.064 199.616 37.64 199.616 40.68H181.424L182 40.104C182 41.288 182.288 42.328 182.864 43.224C183.472 44.088 184.24 44.76 185.168 45.24C186.128 45.688 187.152 45.912 188.24 45.912C189.552 45.912 190.624 45.64 191.456 45.096C192.288 44.52 192.928 43.784 193.376 42.888L199.04 45.096C198.368 46.44 197.488 47.608 196.4 48.6C195.344 49.56 194.08 50.296 192.608 50.808C191.136 51.32 189.456 51.576 187.568 51.576ZM182.336 36.552L181.76 35.976H193.328L192.8 36.552C192.8 35.4 192.528 34.488 191.984 33.816C191.44 33.112 190.768 32.6 189.968 32.28C189.2 31.96 188.448 31.8 187.712 31.8C186.976 31.8 186.192 31.96 185.36 32.28C184.528 32.6 183.808 33.112 183.2 33.816C182.624 34.488 182.336 35.4 182.336 36.552ZM201.043 51L214.051 32.616L224.611 17.4H232.435L219.715 34.872L208.963 51H201.043ZM224.755 51L214.003 34.872L201.283 17.4H209.107L219.667 32.568L232.675 51H224.755Z" fill="white"/>
<path d="M7.256 50.4059C4.3313 50.4059 2 48.0745 2 45.1499V32.3067C2 28.8309 4.79754 26.0335 8.27327 26.0335H19.7178C23.1936 26.0335 26.0335 23.1936 26.0335 19.7178V8.27327C26.0335 4.79754 28.8309 2 32.3067 2H44.1327C47.6084 2 50.4059 4.79754 50.4059 8.27327V19.7178C50.4059 23.1936 53.2458 26.0335 56.7216 26.0335H68.1661C71.6418 26.0335 74.4393 28.8309 74.4393 32.3067V44.1327C74.4393 47.6084 71.6418 50.4059 68.1661 50.4059H56.7216C53.2458 50.4059 50.4059 53.2459 50.4059 56.7217V68.1661C50.4059 71.6419 47.6084 74.4393 44.1327 74.4393H26.0335" stroke="#F7A582" stroke-width="4"/>
<path d="M7.25601 50.2362C7.22777 49.8971 7.21362 49.544 7.21362 49.1766C7.21362 43.6663 11.6643 39.1733 17.2169 39.1733C21.0318 39.1733 24.3379 41.2926 26.0334 44.3869C27.7289 41.2926 31.0351 39.1733 34.8075 39.1733C40.3603 39.1733 44.8533 43.6663 44.8533 49.1766C44.8533 50.5754 44.5566 51.8893 44.048 53.0763C42.7339 56.7215 38.7072 63.8426 26.5421 74.2274" stroke="white" stroke-width="4" stroke-linecap="round" stroke-linejoin="round"/>
</svg>
